<svg xmlns="http://www.w3.org/2000/svg" xmlns:xlink="http://www.w3.org/1999/xlink" xml:space="preserve" width="160" height="160"><defs><linearGradient id="g"><stop offset="0" style="stop-color:#5b75ad;stop-opacity:1"/><stop offset="1" style="stop-color:#5673a4;stop-opacity:1"/></linearGradient><linearGradient id="f"><stop offset="0" style="stop-color:#6a5840;stop-opacity:1"/><stop offset="1" style="stop-color:#866a47;stop-opacity:1"/></linearGradient><linearGradient id="e"><stop offset=".346" style="stop-color:#796345;stop-opacity:1"/><stop offset=".673" style="stop-color:#796345;stop-opacity:1"/><stop offset=".805" style="stop-color:#715d42;stop-opacity:1"/><stop offset=".955" style="stop-color:#866a47;stop-opacity:1"/></linearGradient><linearGradient id="d"><stop offset=".355" style="stop-color:#313237;stop-opacity:1"/><stop offset=".636" style="stop-color:#363837;stop-opacity:1"/></linearGradient><linearGradient id="c"><stop offset="0" style="stop-color:#655540;stop-opacity:1"/><stop offset=".5" style="stop-color:#66553f;stop-opacity:1"/><stop offset=".75" style="stop-color:#6a5842;stop-opacity:1"/><stop offset="1" style="stop-color:#7c705b;stop-opacity:1"/></linearGradient><linearGradient id="b"><stop offset="0" style="stop-color:#413124;stop-opacity:1"/><stop offset=".5" style="stop-color:#413224;stop-opacity:1"/><stop offset="1" style="stop-color:#423224;stop-opacity:1"/></linearGradient><linearGradient id="a"><stop offset="0" style="stop-color:#7c705b;stop-opacity:1"/><stop offset="1" style="stop-color:#6e5b45;stop-opacity:1"/></linearGradient><linearGradient xlink:href="#a" id="m" x1="53.954" x2="90.51" y1="117.42" y2="117.42" gradientTransform="translate(5.657 1.414)" gradientUnits="userSpaceOnUse"/><linearGradient xlink:href="#b" id="k" x1="79.746" x2="79.746" y1="62.772" y2="136.577" gradientTransform="translate(5.657 1.414)" gradientUnits="userSpaceOnUse"/><linearGradient xlink:href="#c" id="l" x1="106.444" x2="80.186" y1="140.406" y2="140.406" gradientTransform="translate(5.657 1.414)" gradientUnits="userSpaceOnUse"/><linearGradient xlink:href="#d" id="n" x1="131.49" x2="131.49" y1="116.709" y2="152.028" gradientTransform="translate(5.657 1.414)" gradientUnits="userSpaceOnUse"/><linearGradient xlink:href="#e" id="h" x1="101.198" x2="101.198" y1="34.599" y2="138.995" gradientTransform="translate(5.657 1.414)" gradientUnits="userSpaceOnUse"/><linearGradient xlink:href="#f" id="i" x1="49" x2="153.396" y1="86.797" y2="86.797" gradientTransform="translate(5.657 1.414)" gradientUnits="userSpaceOnUse"/><linearGradient xlink:href="#g" id="j" x1="3.231" x2="3.231" y1="192.346" y2="198.022" gradientTransform="translate(76.794 -149.396)" gradientUnits="userSpaceOnUse"/></defs><path d="M112.098 16.531c-.494-.036-1.066.082-1.674.407-1.166.622-1.977 3.14-2.969 4.732-.977 1.57-1.81 2.432-3.04 3.146-.933.542-2.088 1.7-2.823 1.704l-1.908.01 2.298 2.171c1.173 1.13 1.409 1.526 2.268 1.502 1.637-.046 2.303.683.84 1.8l-1.615 1.237 1.832.684c1.961 1.147 7.637 6.415 7.656 7.107.02.7.006.702-4.129.182-1.807-.227-4.08-.76-4.225-.76h-.004l-.002.002h-.002l-.002.002v.002h-.002v.012c.028.158.964 1.22 1.516 2.137 1.024 1.701 1.553 4.323.877 4.342-.154.004-.605-.73-1.045-1.608l-1.289-2.574.603 4.945c.074 3.828-.55 4.208.297 4.961.486.432 1.55.743 1.555.926.022.79-1.89.935-4.18 1.01-2.34.076-1.815.46-3.193 1.89l-1.412 1.465.902 1.346c.497.74 1.204 1.996 1.573 2.793l.67 1.45-2.295 1.4c-2.388 1.456-3.088 4.307-2.91 5.593.082.6-.212.286-.819.303-.608.017.058.629.389.941.478.453.608 1.637.18 1.649-.154.004-1.668-.418-3.364-.94-2.428-.746-3.674-.93-5.86-.865-1.526.046-2.971.214-3.21.375-.46.31-.18 1.437.351 1.422.696-.02 2.784 1.522 2.983 2.201.208.713-1.147 4.027-2.26 5.531-.519.701-.084-.538-.709-1.277-.591-.698-4.35-.816-5.992-.789-.667.01.359.84.539 2.324l.2 1.631-.716-.77-.82-1.203-1.863 1.489c-2.058 1.102-4.098 1.709-7.282 2.162-2.294.326-6.512 1.83-8.357 2.978-1.075.67-1.475 1.215-1.934 2.647-.313.976-1.597 3.103-1.529 3.271l.002.002v.002l.002.002.002.002.002.002h.002l.002.002h.002c.208.012 2.418-1.866 3.658-2.765 1.27-.921 2.411-1.677 2.535-1.68.608-.017-.003 1.77-3.029 8.85-2.46 5.755-3.314 8.148-3.394 9.504-.057.95-.977 2.697-.92 2.853v.004l.002.002.002.002h.002v.002h.004l.002.002h.004c.165-.007 2.37-1.414 3.56-1.824 2.894-.997 3.287-.603 3.813.316.524.918 1.244 1.655-.55 2.858-.724.486-1.73 1.483-2.235 2.214-.505.732-1.855 1.582-2.325 2.13-.785.915-.557 1.358.006 1.654.469.245-.33 1.273-.289 2.74.06 2.138 1.52 2.167 4.434.955 1.693-.704 2.348-1.307 2.373-.402.009.312-.57 1.97-1.285 3.685-2.174 5.212-2.921 8.118-3.02 11.758-.09 3.314.274 4.794 1.168 4.77.225-.006 1.263-.908 2.309-2.002 2.424-2.537 2.8-2.374 2.62 1.134-.341 6.667-.242 6.341-2.265 7.473-.994.557-2.385 1.54-3.09 2.188l-1.279 1.175 1.383.184c2.378.316 3.402.61 3.55 1.016.08.215-.17.502-.556.636-.386.135-1.396.088-1.39.268.004.18-.459 1.862-1.881 3.367l-2.586 2.734 40.652.139c22.359.077 44.683.168 49.611.201s9.437-.137 9.908.086L160 160v-4.826l-.111-.621.111-.5v-10.071c-2.297 1.795-9.182 6.6-9.473 6.325-.358-.34 4.211-2.458 6.752-4.493l2.721-2.177v-21.885l-2.668-9.367-1.178.033c-1.734.048-2.213.349-2.916 1.826-.348.733-1.128 1.733-1.732 2.22-1.197.968-10.018 5.664-10.672 5.682-.246.007.036-1.173.727-3.033 2.353-6.34 3.24-7.322 2.947-3.27-.13 1.801-.068 2.414.244 2.405.535-.015 5.817-5.253 7.459-7.396.791-1.034 1.536-2.627 2.031-4.342.43-1.49.78-2.8.778-2.91-.027-.953-8.416 2.672-13.483 5.826-1.233.767-2.301 1.396-2.375 1.398-.488.014.057-1.707 1.477-4.662.884-1.84 3.106-4.498 3.117-4.709v-.008l-.002-.002-.002-.002-.002-.002c-.297-.174-4.322 2.897-6.453 5.063-1.072 1.089-1.929 1.692-2.248 1.58-1.002-.353-2.91-4.591-3.125-6.944-.276-3.003.843-6.277 1.699-4.974.122.186.455.332.738.324.457-.013.453-.123-.033-.947-1.07-1.814-1.782-4.38-2.047-7.37-.255-2.88-.02-2.485.66-2.736.372-.137.726-.949 1.201-3.75l.428-2.52 2.79.41-.305-2.458-.065-2.252c-.122-4.385-2.055-10.698-4.342-14.182-1.048-1.596-1.633-3.056-1.22-3.043.047.002 1.024.524 1.789.776.886.291 8.476-.159 8.476-.159s-6.307-2.876-7.888-4.51c-1.5-1.549-4.905-6.647-5.377-8.05-.313-.93-.693-.978 3.964.514 1.57.502 2.926.85 3.08.795l.004-.002h.002l.002-.002.006-.008c.165-.308-2.209-3.522-4.394-5.94-1.112-1.23-3.444-3.385-5.182-4.789-3.173-2.564-4.133-3.956-3.177-4.607 1.025-.699 4.358-1.895 6.92-2.485 2.02-.465 3.958-.528 4.019-.712l.002-.002v-.014q-.011-.04-.139-.09c-1.207-.465-11.793-.297-14.14.29-1.097.275-2.084.415-2.194.311h-.002l-.002-.002v-.002l-.002-.002c-.052-.163 1.025-1.599 2.44-3.242 3.831-4.45 4.898-5.793 4.724-5.957-.084-.08-.681.028-1.326.242-.644.214-3.239.6-5.765.858-2.764.281-4.983.683-5.57 1.008-.342.188-.505.286-.532.29h-.002l-.002-.001v-.002h.002v-.002c.061-.085 1.118-.902 2.154-2.446 1.041-1.55.262-3.058-1.22-3.168zm9.576 27.07c.38-.041.564 4.27.191 4.858-.133.21-1.206.563-2.385.783-1.704.319-2.146.308-2.156-.049-.012-.43 3.618-5.118 4.32-5.58a.1.1 0 0 1 .03-.011m.748 14.803.693.842c.803.973 2.67 4.164 3.229 5.52.484 1.173.25 1.166-1.688-.043-1.867-1.165-2.063-1.555-2.16-4.254zm-15.338 16.793h.012l.002.002c.162.051.302 1.848.31 4.04l.016 4.046-2.064.09c-2.72.12-4.997-.043-5.006-.357v-.004c.022-.15.844-.698 1.851-1.227 2.046-1.075 3.463-2.83 4.157-5.146.232-.777.555-1.42.722-1.444m15.402.125q.028-.005.055.022c.572.58 1.215 4.217 1.52 8.597.21 3.026.196 4.56-.04 4.567-.341.01-1.62-3.9-2.152-6.582-.283-1.43.217-6.53.617-6.604m-45.18 18.28c.595-.02.202 1.295-1.179 3.959-.808 1.557-1.672 3.108-1.922 3.447-.617.836-1.73.767-4.098-.258-2.09-.905-2.52-1.367-1.306-1.4 1.183-.033 2.736-.99 5.57-3.432 1.473-1.27 2.794-2.312 2.936-2.316m11.934.355h.008c.167-.005.776 1.317 1.354 2.938l1.048 2.945-1.037 2.148c-.57 1.182-1.483 2.698-2.025 3.37-1.257 1.556-1.282 1.214-.305-4.311.404-2.285.718-4.814.698-5.62-.02-.791.096-1.445.26-1.47m26.59.635h.004l.002.002c.154.035.784 1.281 1.412 2.803 1.431 3.467 1.26 3.22 4.309 6.17 1.387 1.341 2.529 2.688 2.537 2.992.024.875-.633.684-4.096-1.186-4.14-2.236-4.979-2.974-5.02-4.428-.048-1.738.554-6.236.844-6.35h.002zm-38.574 16.926c.42-.012-.059 5.347-.707 7.937-.75 2.997-.917 3.26-2.94 4.627-1.342.908-2.736 1.351-2.75.875-.01-.399 6.193-13.433 6.397-13.44m45.574 5.367q.861.031.889.924c.014.496-.353.884-1.194 1.263-1.365.616-1.86 1.606-2.425 4.86-.199 1.142-.514 2.275-.7 2.517-.62.81-1.836.494-3.89-1.012-1.121-.821-2.366-1.62-2.52-1.617h-.004l-.006.002-.006.004-.002.002-.004.006c-.065.132.361 1.083.797 2.084 1.28 2.942.936 3.748.297 4.424-.657.695.05.952-2.797.045-3.222-1.027-6.558-2.446-6.568-2.793-.016-.557 1.727-.771 3.355-.414.902.198 3.19 1.911 4.15 2.412 2.494 1.3 2.524.353 1.323-2.351-.557-1.253-1.68-3.255-1.824-3.89-.244-1.07-.208-1.139.517-.964 4.987 1.202 6.467.855 6.815-1.592.28-1.974 1.065-3.127 2.47-3.635q.811-.293 1.327-.275m-36.133 6.642h.004c.183-.002.803 1.3 1.428 3.016.994 2.728 1.216 3.819 1.277 6.314.041 1.66-.107 3.706-.328 4.547l-.402 1.532-.416-3.249c-.23-1.786-.257-3.29-.211-3.582.817-5.227-1.339.225-2.348 1.97-2.064 3.567-4.33 6.552-5.435 7.163-.96.531-2.384.765-2.395.393-.003-.104 1.35-2.737 3.006-5.854 1.657-3.116 3.583-7.078 4.28-8.802.695-1.725 1.378-3.271 1.517-3.434l.002-.002.002-.002.002-.002.006-.004h.002l.002-.002h.006zm64.426 1.932c.217-.012.361.03.457.121.545.515-1.024 2.255-2.922 3.24-1.86.965-3.93 1.045-3.955.153-.025-.89.403-1.192 3.647-2.575 1.464-.623 2.296-.913 2.773-.939m-22.348 8.05h.008l.002.003h.002l.002.002.002.002c.16.197-.741 3.477-1.273 4.584-.251.522-1.024 1.357-1.715 1.855-.691.499-1.646.905-2.123.9-1.072-.007-6.253-1.57-6.262-1.888-.009-.312 1.828-.714 3.479-.76 1.87-.052 3.215-.736 5.63-2.863 1.144-1.007 2.156-1.831 2.249-1.834zm24.428 1.429c.225-.004.282.098.287.277.012.434-5.871 4.541-7.324 5.113-1.083.426-1.132.526-1.086 2.193.029 1.025-.163 2.07-.465 2.528-.407.618-.85.79-2.13.824-1.709.046-3.29-.644-5.038-2.197-1.734-1.542-1.236-2.308 1.1-1.69.844.224 2.018.486 2.607.582l1.073.174-.207-1.662c-.183-1.466-.112-1.727.593-2.203.44-.297 1.329-.666 1.975-.82s2.76-.926 4.695-1.715c2.453-1 3.491-1.397 3.92-1.404m-35.676 14.074-2.263 2.252c-1.244 1.238-3.303 3.004-4.576 3.927-3.182 2.307-4.3 2.447-7.434.926-2.553-1.238-3.977-2.311-3.6-2.71l.006-.007c.161-.122 1.608-.092 3.25.069 4.12.402 5.236.276 9.643-2.54 1.898-1.212 2.764-.853 3.61-.867z" style="fill:url(#h);fill-opacity:1;fill-rule:evenodd;stroke:url(#i);stroke-width:.79041;stroke-linecap:round;stroke-linejoin:round"/><path d="M137.804 148.296c-.05.01-.044.094.019.196.067.108.307 1.894.533 3.969s.523 4.27.659 4.878c.135.609.26 1.488.278 1.954.017.465.135.845.26.845.487 0 5.371-1.321 5.569-1.507.286-.268-.513-1.767-2.196-4.112-1.436-2.001-4.904-6.223-5.111-6.223z" style="fill:#91744c;fill-opacity:1;stroke-width:.787427"/><path d="M79.819 42.19c-1.19 0-2.644.59-3.039 1.154-.917 1.31.412 5.085 1.676 5.596 1.49.602 2.611.134 4.66-2.293.654-.775.69-2.242-.32-3.507-.778-.976-1.649-.95-2.977-.95m-.389 2.534c.634.39.813.094.705 1.025-.112.963.12.57-.466.24-.897-.507-1.022-.724-.612-.97.063-.01.379-.292.44-.295z" style="fill:url(#j);fill-opacity:1;stroke:none"/><path d="M99.626 27.133c-.11.662-.518.742-.923 1.231-.15.182-.924.405-1.691.518-2.588.382-14.448 2.673-19.069 3.686-11.008 2.412-15.161 3.684-30.269 9.264-15.647 5.78-24.552 9.55-27.765 11.755-1.678 1.153-2.298 2.223-3.212 5.543-.86 3.128-2.672 11.209-2.54 11.333.055.052 2.278.147 4.94.21 9.92.238 22.814-.942 31.2-2.86 6.11-1.396 11.013-3.232 19.965-7.473 6.538-3.098 9.8-4.152 16.575-5.359 2.986-.532 6.277-.667 6.152-.254-.173.572-5.062 1.948-9.978 2.809-3.29.576-5.22 1.267-9.868 3.54-4.633 2.266-5.792 2.785-10.55 4.714-5.71 2.315-12.081 4.6-14.237 5.106-6.447 1.516-22.232 2.66-30.171 2.187-1.568-.094-2.916-.107-3.03-.031l-.002.002h-.002c-.283.3.545 2.375 1.59 3.987.595.916 1.741 2.461 2.549 3.434l1.468 1.768 1.865-.173c2.415-.225 6.26-.822 10.966-1.701 7.78-1.454 11.177-1.798 20.279-2.051 7.813-.217 8.792-.197 11.783.238 1.766.256 3.28.399 3.405.321l.005-.004c.082-.086.01-.366-.16-.62-.526-.793-.36-1.007.442-.568.876.48 4.724 4.192 4.734 4.567a.25.25 0 0 0 .26.24c.204-.005 2.587-1.198 2.82-1.412.037-.034-.342-.857-.842-1.83-.873-1.697-1.14-2.63-.752-2.637.1-.002 1.335.294 2.742.658 3.992 1.031 5.165.866 5.11-.725-.015-.419-.259-1.234-.54-1.81-.663-1.36.67-.895.148-1.499-2.714-4.459 14.258.415 3.828-3.956 1.398-.095 2.486.03 4.819.555 3.011.678 3.518.677 3.499-.015-.008-.256.187-.351.638-.31.602.057.686-.058 1.173-1.644.47-1.53.51-2.142.405-5.92-.097-3.493-.057-4.215.232-4.223a.2.2 0 0 1 .137.051l3.017-3.275-.96.467c-.436.003-1.011-.074-1.279-.17-.485-.174-.485-.177-.012-.447.26-.149 1.098-.47 1.861-.716.764-.245 1.385-.563 1.381-.707s-.387-.701-.85-1.238c-1.09-1.26-1.686-2.355-1.708-3.134-.029-1.031.673-.76 3.202 1.232l2.367 1.864-.058-4.441-.06-4.442-1.158-1.906c-.638-1.048-1.132-2.073-1.1-2.274.05-.298.53-.38 2.533-.437 1.359-.038 2.55-.155 2.648-.257.097-.103.04-.183-.124-.178-.166.004-.662-.25-1.103-.567-1.108-.798-3.37-1.728-4.637-1.907-.928-.13-1.07-.234-1.156-.837-.075-.52 1.036-.486 1.75-1.679l1.149-1.92c-1.235-1.101-3.831-3.673-3.831-3.673m-1.872 30.642-.18.195.859 1.527c-.406-.951-.487-1.55-.68-1.722m-35.717-20.01h.021c.531-.015 4.024 2.456 4.035 2.853.015.563-2.595-.163-3.43-.953-.673-.636-1.066-1.849-.626-1.9m27.687.01c1.691.06 4.824 1.054 4.837 1.533.006.2-.82.524-2.651 1.04-.599.168-2.698-.325-3.794.039-2.253.748-2.118 1.237-1.434 3.625.527 1.843 1.002 3.731.215 4.72-.589.742-1.92 1.485-2.195 1.226l-.002-.001-.002-.002v-.004c-.01-.134 1.08-1.101 1.46-1.925 1.32-2.856.143-5.84-1.931-5.782-.53.015-1.38 1.343-1.125 1.966.617 1.506.035 4.778-1.761 5.858-1.214.73-1.715.743-3.066.078-1.424-.702-2.467-2.519-2.721-4.743-.098-.855-.295-1.694-.439-1.865-.2-.24-.83-.257-2.722-.077-2.268.216-2.547.193-3.56-.293l-1.1-.526 1.205-.593c3.677-1.807 16.442-4.432 20.786-4.274m-63.71 18.684c.212-.011.328.154.337.5.016.566-3.047 3.602-4.312 4.275-1.12.596-2.713.807-2.984.394l-.002-.004-.002-.01c.004-.139 1.027-.477 1.707-1.208.621-.667.813-1.245 1.015-1.554-.45-.222-.18-.601.739-1.062 1.093-.549 1.447-.8 2.509-.752l.053.004.015-.014q.601-.552.924-.569zm34.051-.284c.174-.01.286-.008.313.011l.002.002c.178.168-1.43.967-2.707 1.346-2.15.637-4.346.45-3.628-.31.193-.203 4.762-.972 6.02-1.049m-11.034.736c.799-.034 1.066.407.195 1.054-.535.398-1.903.57-2.212.278-.342-.323-.156-.598.655-.964.526-.237.999-.352 1.362-.368m-4.417 1.558c.208-.003.288.055.212.187-.179.308-3.895 2.073-9.99 4.747-2.57 1.128-4.792 2.05-4.938 2.05-.387-.003.971-1.136 2.399-2.002 3.198-1.942 10.86-4.963 12.317-4.982m53.823 1.038c.163.381.378.819.673 1.308l.924 1.531z" style="fill:#302d2a;fill-opacity:1;fill-rule:evenodd;stroke:#2f2e2b;stroke-width:.558904;stroke-linecap:round;stroke-linejoin:round;stroke-opacity:1"/><path d="m125.245 72.412-1.336-7.964.627-1.33 1.507 1.533z" style="fill:#91744c;fill-opacity:1;fill-rule:evenodd;stroke:none;stroke-width:1.7737;stroke-linecap:round;stroke-linejoin:round"/><path d="M156.613 111.87c-7.707.2-8 4.024-15.172 12.362-1.854 1.184-5.314 4.194-6.162 5.364-1.63 2.249-.957 2.608 1.39.74.648-.515 3.456-1.876 6.241-3.024 7.105-2.927 8.03-3.23 10.53-3.453 1.883-.168 4.629-.692 6.56-1.2v-10.636c-1.445-.116-2.286-.182-3.387-.154" style="fill:#323034;fill-opacity:1"/><path d="M53.295 80.355c0 .228-.043 1.317-1.916 2.258-.812.408-1.662.493-1.899.778-.368.444-1.351.63-.831 1.011.335.245.92.445 1.3.445.894 0 3.58-1.417 4.708-2.486.876-.83.879-.83.879-.117 0 1.015-.823 2.505-2.43 4.402-.74.873-1.262 1.678-1.193 1.828 0 .002.004.008.006.01l.002.002c.326.327 1.764.208 3.056-.253.619-.222 1.13-.324 1.192-.245l.002.002.002.002v.002l.002.002v.01c-.001.246-1.638 4.546-2.354 6.184-.461 1.056-.465 1.232-.031 1.666s.724.366 2.742-.646c1.203-.604 2.24-1.057 2.356-1.032h.002l.002.002h.002v.002h.002c.057.059-.853 2.122-2.024 4.586-1.99 4.189-2.136 4.649-2.242 7.059-.122 2.789.423 4.776 1.418 5.158.297.114 1.19-.034 1.984-.328.782-.29 1.482-.47 1.575-.404l.002.002.002.002c.073.073-.392 1.727-1.55 3.458-1.157 1.73-1.675 3.59-2.228 3.551-.225-.016.072.379.52.55.736.28.792.425.595 1.51-.038.213.833 3.591.764 3.838l6.147-2.112c.686-.236 2.636-2.157 3.22-2.772 1.949-2.053 3.483-3.793 3.41-3.865h-.002l-.002-.002c-.116-.052-1.167.299-2.375.797-2.718 1.12-5.002 1.64-7.228 1.638l-1.664-.002 1.44-1.275c.791-.702 2.23-1.739 3.199-2.305s2.486-1.754 3.375-2.642c2.353-2.353 5.572-6.516 6.322-8.176l.65-1.44.387.961c.213.528.487 1.788.61 2.8.197 1.631.286 1.804.79 1.534.373-.199.685-.186.91.04.393.391.73-.628 1.551-4.694 1.131-5.603 1.662-8.025 1.873-8.537.18-.434.084-.5-.498-.348-.576.15-.677.082-.513-.343.112-.293.085-.532-.059-.532h-.002l-.002-.002h-.002l-.002-.002h-.002l-.002-.002c-.134-.197.748-3.83 1.34-5.48l.002-.002.002-.002.002-.002h.002c.128-.049 1.621.83 3.394 2.006 1.831 1.213 3.457 2.205 3.614 2.205.003 0 .01-.004.013-.006.147-.093.247-1.313.22-2.793-.083-4.445-.033-5.116.34-4.56q.117.17.17.183h.011l.002-.002h.002l.002-.002h.002l.002-.002.002-.002c.04-.05.02-.28-.06-.703-.143-.745.1-1.705.939-3.68l.011-.027s-35.959.958-35.959 1.341zm53.125-1.342c-.742 1.102-2.036 2.108-4.091 3.223-1.808.981-1.765 1.156.257 1.03 1.45-.091 3.77.597 5.319 1.58.834.529 1.632.962 1.773.962s.258-2.43.258-5.402q0-.764-.002-1.393zm-24.164.534c.767.213 1.155.327 1.21.386v.002l.001.002.002.002v.006l-.002.002v.004h-.002l-.002.002-.002.002c-.051.033-1.21.62-1.63.623-5.401 1.36-6.19-3.152.425-1.031m7.696 12.547c-.248.024-.419 1.261-.635 4.363-.096 1.369-.523 3.888-.95 5.6-.425 1.71-.877 3.756-1.003 4.544-.198 1.239-.164 1.38.242 1.043.258-.214.555-.304.66-.199l.006.004.006.002c.153.027.937-.85 1.787-2.01 1.528-2.084 3.409-3.898 5.711-5.51 1.437-1.005 1.382-2.035-.19-3.52-2.626-2.485-4.925-4.345-5.156-4.188l-.007.008-.002.002a.1.1 0 0 0-.01.033q-.001.191-.04.228c-.041.031-.121-.054-.253-.263q-.09-.143-.166-.137m26.752 1.68c-.4.001-.723 1.533-1.338 6.083-.275 2.03-.247 2.449.195 2.938.536.592 4.222 2.846 6.744 4.183v-3.191c-.817-.743-1.499-1.453-1.52-1.582-.02-.13-.292-.742-.603-1.358-.31-.616-.957-2.271-1.437-3.68-.717-2.097-1.225-3.317-1.387-3.364h-.012l-.002.002c-.02.01-.036.05-.039.123-.005.153-.208.114-.451-.088q-.077-.066-.15-.067m-15.496 6.124-.02.002c-.127.018-.21.2-.21.569 0 1.805-2.99 9.44-5.257 13.42-.582 1.023-1 1.877-.982 1.99v.004l.002.002.002.002h.002v.002h.004c.091 0 1.01-.426 2.043-.947q1.876-.95 2.597-2.116c.66-1.065.82-1.15 1.84-.984.615.1 1.673.548 2.352.998.776.514 1.235.666 1.234.412-.003-.534-2.468-10.988-2.906-12.324-.218-.664-.504-1.033-.701-1.03m-23.122 9.274c-.36.026-1.525 2.25-3.369 6.44a70 70 0 0 1-2.173 4.413h8.283c.621-1.874.483-2.688-1.092-6.814-.462-1.21-.844-3.201-.844-3.201-.366-.677-.74-.838-.805-.838" style="fill:url(#k)"/><path d="M70.926 77.945s-3.267.054-5.652.133c-6.022.201 2.315 1.208 3.636 1.54.665.167 2.32-.026 2.32-.026l1.142 1.5 1.504 2.086q.26-.027.49-.037c1.133-.05 2.14-.24 2.242-.422h.002v-.004l.002-.004c.126-.4-3.584-3.893-3.584-3.893zm-29.046 2.47-.833.114.028.563h.805z" style="opacity:.74;fill:#1a1714;fill-opacity:1;stroke-width:1.21306"/><path d="M91.345 123.809c-.866 0 .011 1.92.324 4.982-.075 3.283-.659 10.697-.97 12.32a383 383 0 0 0-.77 4.641c-.789 4.871-1.128 5.999-2.121 7.064-.485.52-.876 1.468-1.057 2.56a64 64 0 0 1-.597 3.095l-.31 1.361H112.1l-3.154-36.023z" style="fill:url(#l);fill-opacity:1"/><path d="M87.363 151.242c-.514-2.933.376-9.313 1.128-13.704.66-3.85 1.014-7.143-.214-10.612-.62-1.75-1.274-3.155-1.455-3.121s-1.144 1.942-2.139 4.242-2.94 6.25-4.322 8.778c-2.27 4.151-2.638 4.64-3.808 5.037-1.535.523-7.066 1.195-8.114.987-2.901-.577-2.678-.341-2.678-2.828 0-1.269-.172-2.376-.389-2.51-.215-.134-1.282.644-2.396 1.746-1.105 1.093-2.2 1.988-2.433 1.988-.67 0-.973-1.68-.928-5.142.036-2.799.228-3.726 1.537-7.425.823-2.325 1.759-4.982 2.08-5.905s.857-1.767 1.19-1.876c.795-.26 6.437-6.296 6.015-6.437-.179-.06-1.742.356-3.473.925-3.386 1.11-7.43 1.746-7.033 1.105.126-.204 1.53-1.276 3.118-2.382 4.245-2.955 8.763-7.824 10.353-11.158.72-1.51 1.037-1.423 1.347.372.55 3.198.529 3.156 1.618 3.156.614 0 1.118-.226 1.247-.56.119-.307.76-3.105 1.424-6.216s1.309-6.015 1.431-6.452c.166-.59.075-.796-.348-.796-.391 0-.571-.314-.571-.996 0-1.16.983-4.66 1.31-4.66.175 0 4.498 2.637 5.835 3.56.421.29 2.037 6.316 2.043 7.616.002.605-.395 3.057-.882 5.449s-.828 4.406-.758 4.476c.34.34 1.696-.56 2.646-1.757.584-.736 1.137-1.214 1.228-1.06.168.279 5.195 18.006 5.195 18.318 0 .092-1.105.167-2.454.167s-2.557.165-2.682.368 1.518 2.388 1.742 3.713c.51 3.03-.63 10.14-1.867 17.466-1.267 7.507-2.882 9.896-3.543 6.128m-13.56-27.295c1.105-.635 1.643-1.251 2.07-2.371l.579-1.514 2.344-.104 2.345-.103.114-1.2c.064-.672-.383-2.767-1.018-4.772-1.371-4.325-1.514-4.635-2.14-4.635-.59 0-5.621 10.014-5.417 10.783.077.292-.255 1.382-.738 2.422-1.452 3.127-1.257 3.283 1.86 1.494" style="fill:url(#m);fill-opacity:1;fill-rule:evenodd;stroke:none;stroke-width:.811405;stroke-linecap:round;stroke-linejoin:round"/><path d="M80.719 159.32c.977-1.906 3.365-7.298 4.221-8.595.863-1.307 2.741-4.015 2.741-4.658 0-.108.023-.133.086-.111.884.302.172 11.128-.847 13.814l-2.154.125h-4.342z" style="fill:#8f8676;fill-opacity:1;fill-rule:evenodd;stroke:none;stroke-width:.405703;stroke-linecap:round;stroke-linejoin:round"/><path d="M87.472 125.195c-.794.207-.368.464-1.642 3.53-.927 2.228-5 9.682-6.3 11.526-.266.378-1.013 1-1.66 1.38v-.001c-1.501.886-8.439 1.805-10.5 1.209-4.31-1.247-3.135.02-3.53 1.97-.305 1.419-.467 1.639-1.438 1.96-1.543.508-4.837 3.007-5.588 4.237-.713 1.17-.023 1.442.548 2.013.21.21 1.964-.785 2.411.075l.701 1.348-1.289 1.36c-1.297 1.367-2.075 2.481-2.457 3.519-.194.527.495.56 11.703.56h11.912l.795-1.52c.438-.835 2.148-3.896 3.801-6.8 3.733-4.35 3.737-12.626 3.737-12.626-.054-5.43-.118-8.648-2.267-14.442z" style="fill:#524436;fill-opacity:1"/><path d="M144.532 131.39c-.997.94-3.054 2.35-4.639 3.177-1.796.939-2.583 1.491-2.128 1.498 1.19.018.828.457-1.28 1.557-1.1.573-2.685 1.53-3.523 2.127-2.747 1.954-9.695 4.16-12.213 3.879-1.952-.218-1.592.21.754.898 2.36.691 2.907.657 7.205-.459 4.4-1.143 6.087-1.066 8.37.38.805.512 1.991 1.056 2.636 1.208 3.69.872 5.17-.01 5.172-3.084l.002-1.856 2.084-1.078c2.21-1.143 6.852-4.494 6.865-4.957.007-.253-.801-.138-2.385.336-.509.153-.437-.033.365-.947 1.137-1.295 2.989-3.923 2.989-4.242v-.002l-.002-.002v-.01l-.002-.002v-.002l-.002-.002-.002-.002c-.066-.067-.506.108-1.034.42l-1.039.615.114-2.695c.085-2.023.093-2.525-.207-2.553h-.06a1.4 1.4 0 0 0-.28.068c-.313.1-7.76 5.73-7.76 5.73" style="fill:url(#n);fill-opacity:1"/><path d="m104.698 127.594 7.834 8.195 7.36-10.84c-1.323 2.028-3.21-.022-6.048 4.999-1.2 2.122-2.306-2.053-9.146-2.354" style="fill:#5a4836;fill-opacity:1;fill-rule:evenodd;stroke:none;stroke-width:2.295;stroke-linecap:round;stroke-linejoin:round"/><path d="m100.18 154.577 2.748 4.285 9.56.22 5.054-7.472-2.307-.55-7.692 4.396z" style="fill:#50422e;fill-opacity:1;fill-rule:evenodd;stroke:#50422e;stroke-width:2.01746;stroke-linecap:round;stroke-linejoin:round;stroke-opacity:1"/><ellipse cx="81.936" cy="45.608" rx="1.591" ry="1.149" style="opacity:.250621;fill:#fff;fill-opacity:1;fill-rule:evenodd;stroke:none;stroke-width:2.295;stroke-linecap:round;stroke-linejoin:round;stroke-opacity:1"/><ellipse cx="79.452" cy="47.901" rx="1.591" ry="1.149" style="opacity:.250621;fill:#fff;fill-opacity:1;fill-rule:evenodd;stroke:none;stroke-width:2.295;stroke-linecap:round;stroke-linejoin:round;stroke-opacity:1"/><path d="M112.2 12.281c-1.173-.01-2.747.503-3.755 1.26-1.08.812-2.724 3.586-3.687 6.227-1.004 2.751-1.163 2.67-2.197-1.147-.34-1.25-.816-2.345-1.061-2.432-.644-.226-1.653 1.723-1.615 3.124.017.648.183 1.545.367 1.992.434 1.051.15 1.03-1.705-.125-.84-.523-1.74-.864-1.998-.756-.804.334-.479 1.697.73 3.064.637.72 1.16 1.425 1.164 1.567-.01.142-.97.447-2.142.677-1.182.233-2.504.568-2.94.745-.435.176-3.66.76-7.166 1.296-6.59 1.01-13.506 2.482-15.81 3.368-.727.28-3.832 1.21-6.903 2.07-7.905 2.212-19.915 5.953-25.709 8.008-14.832 5.26-21.144 9.114-23.35 14.26-2.074 4.839-3.574 13.893-2.546 15.37.25.36.45 1.156.443 1.77-.018 1.846 1.68 6.004 3.223 7.89 1.564 1.915 3.501 3.58 4.77 4.098 1.523.624 2.186.57 13.496-1.1 12.245-1.806 18.18-2.41 18.195-1.849.004.135-1.131.914-2.524 1.733-2.75 1.617-3.147 2.423-1.255 2.552 1.177.08 3.006-.817 4.896-2.402l1.195-1.002-.195 1.252c-.185 1.19-.957 2.568-2.76 4.924l-.812 1.062 1.24-.037c.682-.02 1.652-.264 2.154-.545.503-.28.975-.453 1.05-.382.116.11-1.037 3.565-2.306 6.902-.307.808-.309 1.133-.007 1.418.301.285.94.08 2.8-.893 1.285-.671 2.399-1.17 2.534-1.138l.006.002h.001v.001h.002c.073.07-.672 1.879-1.656 4.02s-2 4.573-2.256 5.404c-.794 2.573-.413 5.778.838 7.055l.77.785 1.654-.681c.896-.37 1.691-.617 1.787-.557h.002l.002.002c.075.07-.854 1.744-2.064 3.719s-2.105 3.738-1.987 3.918.495.318.836.308c.8-.022.86 1.168.17 3.277-.686 2.098-.316 2.44 1.951 1.811.92-.255 2.272-.813 3.008-1.242 1.09-.635 1.343-.69 1.354-.293.007.268-.243.561-.555.652-.934.272-2.45 3.028-3.465 6.291-.855 2.753-.943 3.445-.857 6.746.13 5.006 1.134 7.65 2.886 7.602.187-.005.904-.545 1.59-1.201 1.388-1.327 1.38-1.337.877 1.123-.347 1.702-.42 1.793-2.23 2.777-2.256 1.227-5.016 3.965-5.3 5.26-.309 1.415.854 2.198 2.888 1.945 1.57-.195 2.341.133 1.226.522-.897.312-3.428 3.948-3.402 4.886.003.097.4.162.885.145.687-.025 1.08-.358 1.798-1.518.506-.816 1.665-2.058 2.579-2.76 1.282-.984 1.529-1.303 1.082-1.4-.442-.096-.336-.224.449-.549 1.851-.764 1.247-1.189-2.045-1.433-1.109-.083-2.026-.257-2.086-.393l-.002-.01v-.002c-.016-.556 2.769-2.751 4.672-3.681 1.382-.676 1.92-1.092 1.691-1.309-.23-.217-.177-1.207.166-3.115.628-3.486.623-5.388-.015-5.613-.303-.107-1.079.566-2.166 1.877-1.862 2.243-2.724 2.603-3.319 1.388-.608-1.242-.606-6.108.004-8.804.49-2.164 2.336-7.167 3.467-9.391.573-1.127.527-2.178-.105-2.4-.278-.098-1.243.222-2.145.71-.902.489-1.943.897-2.312.907-.616.017-.656-.096-.465-1.33.237-1.54-.165-2.813-.881-2.793-.668.018-.624-.412.113-1.117.339-.325 1.136-1.445 1.772-2.489.784-1.288 1.53-2.078 2.322-2.463 1.557-.755 2.524-1.889 2.367-2.775-.272-1.54-1.479-1.48-6.777.348l-1.543.533.08-2c.067-1.703.463-2.863 2.668-7.832 1.424-3.21 2.683-6.188 2.799-6.62.115-.43.467-1.233.78-1.782.58-1.014.74-2.126.304-2.11-.132.005-1.157.748-2.276 1.652-1.94 1.568-3.144 2.089-3.164 1.368-.005-.183.263-.906.596-1.606s.597-1.557.588-1.904c-.037-1.327 7.307-4.358 11.234-4.637 1.054-.075 2.317-.315 2.807-.535s1.185-.408 1.545-.418c1.231-.034.32-1.638-2.184-3.846-2.476-2.182-3.208-2.603-2.33-1.341.7 1.007.253 1.147-2.225.7-8.397-1.513-22.332-.67-36.437 2.204-2.101.428-5.139.883-6.75 1.01l-2.93.23-1.861-2.13c-2.052-2.352-3.843-5.424-3.877-6.653-.022-.783.007-.791 1.984-.639 8.993.692 26.658-.642 32.664-2.465 5.22-1.584 17.347-6.389 21.668-8.586 6.59-3.35 8.102-3.91 12.239-4.54 3.02-.461 8.86-2.024 9.3-2.49.847-.896-7.202.212-12.888 1.775-2.74.752-5.369 1.802-9.182 3.662-14.198 6.924-21.07 8.742-38.424 10.172-5.479.45-17.847.513-18.293.091-.197-.186 1.698-8.627 2.756-12.277.975-3.363 1.584-4.136 4.477-5.682 4.948-2.644 15.005-6.838 23.572-9.832 2.877-1.005 7.084-2.564 9.348-3.463 8.26-3.28 18.499-5.972 34.004-8.941 3.852-.738 7.838-1.45 8.857-1.58 1.176-.151 1.804-.369 1.72-.598-.072-.198 1.537-1.24 3.577-2.314 2.423-1.277 3.772-2.18 3.892-2.6.102-.354.709-1.342 1.348-2.199s1.12-1.74 1.068-1.96a.5.5 0 0 1-.02-.185v-.001l.003-.002.002-.002v-.002l.002-.002h.004v-.002h.002l.002.002h.003q.029.015.08.111c.102.19.719-.022 1.51-.516 1.313-.819 3.036-1.158 3.051-.601.004.155-.616 1.133-1.379 2.174-1.507 2.056-1.569 2.526-.207 1.564.71-.502 1.628-.654 4.928-.826 2.52-.131 4.555-.405 5.38-.723 1.337-.514 2.845-.71 2.854-.37.006.205-3.235 4.114-6.011 7.25-.938 1.058-1.643 1.936-1.653 2.052v.008h.002v.004h.008c.105-.003 1.142-.253 2.305-.557 2.768-.724 8.662-.987 11.421-.51 2.29.396 2.9.918 1.147.979-1.78.061-6.467 1.376-8.133 2.28-1.522.825-1.577.898-1.238 1.733.194.48 1.456 1.708 2.803 2.727 3.152 2.384 6.422 5.67 8.61 8.654 1.877 2.558 2.052 2.993 1.19 2.938-1.155-.075-5.42-1.393-5.953-1.84-1.194-1.002-1.149.013.084 1.91a159 159 0 0 1 2.131 3.375c.473.78 1.397 2.005 2.053 2.725 1.471 1.613 5.202 3.755 6.892 4.316.474.157 1.085.352 1.498.44-.547.044-1.902.3-3.79.488-2.684.267-3.435.229-5.014-.256l-1.86-.57.225.644c.124.355.644 1.189 1.154 1.854 2.221 2.892 4.427 10.238 4.569 15.21.09 3.168.052 3.415-.557 3.592-.4.117-.727.016-.842-.26-.197-.472-1.258-.592-1.504-.17-.078.137-.035 1.488-.26 2.97l-.554 3.662c-.212-.579-1.15-.316-1.32.449-.442 1.991.864 7.565 2.234 9.533.7 1.006.632 1.372-.262 1.397-.48.013-.829-.192-.914-.536-.094-.378-.349-.069-.797.965-1.22 2.818-.486 6.739 1.87 9.979l.775 1.068 1.248-1.236c3.61-3.581 6.405-5.668 6.43-4.801.003.11-.745 1.603-1.663 3.318-.917 1.716-1.752 3.612-1.855 4.213l-.188 1.094.917-.691c1.5-1.133 9.589-5.386 11.712-6.159 1.084-.394 2.316-.726 2.739-.738l.77-.021-.552 2.336c-.865 3.667-1.625 5.052-4.185 7.634-1.299 1.31-2.5 2.548-2.67 2.75-1.26 1.498-2.411 2.469-2.998 2.53-.672.07-.687 0-.553-2.557.1-1.912.05-2.495-.191-2.139-.696 1.03-1.564 3.018-2.3 5.27-.42 1.287-.908 2.527-1.083 2.758-.443.583.272.268 5.777-2.553 4.693-2.404 5.79-3.31 6.813-5.617.554-1.251 1.027-1.413 4.431-1.514l2.227-.066v-2.598l-2.22.154c-2.175.15-2.535.104-2.384-.308.703-1.916 1.845-6.207 1.948-7.32.131-1.42-.35-1.86-1.41-1.294-.26.14-1.889.518-3.62.842-1.73.324-4.374 1.04-5.876 1.59-1.503.551-2.788.952-2.856.89l-.002-.001c-.06-.079.102-.713.363-1.424.599-1.626.586-2.709-.035-3.195-.745-.585-1.561-.113-4.982 2.873-1.756 1.532-3.28 2.788-3.387 2.79-.741.021-2.534-5.917-1.994-6.605.543-.693 2.012-1.399 2.984-1.433 1.128-.04 3.582-1.22 3.569-1.713-.008-.259-.372-.288-1.203-.096-2.09.483-2.4.418-3.184-.666-.606-.838-1.824-3.869-1.844-4.586v-.006l.002-.002v-.002c.071-.078.88-.094 1.856-.033 1.806.113 1.89.084 2.742-.986l.877-1.106-1.951-.162c-1.84-.154-3.566-.85-3.672-1.478a25 25 0 0 1-.11-.717l1.11-2.897c.381-1.034.828-1.87.992-1.855.164.014.292.67.285 1.455s.093 1.424.22 1.42c.509-.014 1.905-1.902 2.538-3.432.557-1.344.657-2.216.594-5.138-.042-1.936-.203-4.128-.358-4.871s-.171-1.344-.037-1.333c.135.012 1.024.851 1.977 1.864l1.732 1.84-.035-1.264c-.067-2.41-1.265-4.58-4.074-7.387-1.435-1.433-2.61-2.694-2.614-2.803-.003-.108.547-.211 1.223-.23 1.31-.037 4.937-2.056 5.123-2.564l.002-.008.002-.002-.002-.002v-.006l-.002-.002v-.002q-.013-.017-.058-.023l-2.745-2.13c-5.205-4.603-6.73-6.064-6.742-6.452-.017-.61 4.314.063 5.205.808.323.27.497.414.567.375l.01-.008c.06-.067.01-.348-.094-.904-.56-2.969-3.888-8.647-7.14-12.184-.819-.889-1.49-1.687-1.491-1.775-.009-.316 2.01.363 2.379.8.207.247 1.696 1.262 3.308 2.255l2.932 1.804-.912-1.783c-1.164-2.276-4.185-4.898-7.19-6.238-1.19-.531-2.173-1.047-2.236-1.17l-.002-.006-.002-.002v-.006l.006-.013c.21-.293 4.87-1.129 6.926-1.233 1.01-.05 1.931-.234 2.049-.408.259-.384-.34-1.12-.897-1.105-.222.006-.642-.332-.933-.75-.975-1.4-4.232-2.585-7.91-2.875-1.82-.145-3.587-.18-3.924-.082-.768.223-.787-.094-.067-1.094.309-.429 1.21-2.095 2.002-3.701.793-1.607 1.727-3.182 2.076-3.5 1.066-.97.406-.893-3.57.408-3.188 1.043-4.373 1.354-6.514 1.709l-1.593.264 1.07-1.176c.589-.648 1.206-1.183 1.371-1.188.418-.011 1.744-1.569 1.518-1.783-.102-.096-.457-.165-.79-.156-.332.01-.521-.13-.417-.309.394-.68-2.95-.208-5.567.785-1.474.56-2.732.97-2.795.91v-.001l-.002-.002-.002-.002v-.004l-.002-.002v-.002c-.004-.093.395-.462.93-.852 1.333-.97 2.753-2.35 2.744-2.666-.004-.135-.504-.323-1.111-.42a3 3 0 0 0-.475-.037m-7.65 18.047c-1.26.035-1.506.178-2.47 1.43-1.564 2.031-1.852 2.708-1.326 3.12.238.187.501.268.586.179.293-.31 3.863 1.001 4.842 1.779.541.43 1.117.778 1.279.773.162-.004.3.158.307.36.007.262-.727.33-2.569.24-1.964-.096-2.612-.025-2.724.295-.082.23.649 1.614 1.625 3.076.975 1.462 1.99 3.26 2.255 3.994.258.712.516 1.298.586 1.332h.002l.002.002h.006v-.002h.002l.002-.002c.054-.057.083-.668.063-1.406-.03-1.08-.313-1.79-1.215-3.053-.631-.883-1.088-1.676-1.035-1.79l.002-.003.001-.002.002-.002c.08-.084 1.924.084 4.1.372 2.176.287 4.008.472 4.072.412.294-.277-2.343-3.24-3.943-4.432a105 105 0 0 1-3.09-2.396c-.72-.59-1.561-1.067-1.869-1.06-.308.009-.563-.128-.568-.304a.32.32 0 0 1 .306-.33c.38-.01 2.19-1.962 2.18-2.35-.004-.15-.64-.253-1.41-.232m-15.67 7.504c-.482.02-1.05.064-1.754.125-4.938.427-14.775 2.673-17.846 4.076l-1.238.567 1.18.572c1.022.496 1.44.521 3.156.195 2.861-.543 3.197-.375 3.262 1.635.069 2.151 1.056 4.157 2.433 4.945 1.352.773 2.085.754 3.38-.086 1.71-1.109 3.09-4.441 2.193-5.29-.194-.184-.355-.463-.36-.624-.011-.401 2.343.003 2.649.455.545.807.287 2.581-.598 4.114-1.004 1.739-.984 1.802.344 1.068 1.897-1.05 2.35-3.172 1.271-5.977-.288-.75-.417-1.476-.285-1.613.24-.25 4.728-1.743 6.666-2.217.568-.139 1.031-.365 1.027-.504l-.002-.003c-.031-.145-.93-.555-2.02-.918-1.329-.444-2.011-.582-3.458-.52m-26.71.123c-.102.01-.175.162-.169.38.023.823 1.149 1.835 2.307 2.073 1.527.315 1.602.317 1.588.043v-.004c-.056-.229-2.935-2.182-3.665-2.482a.13.13 0 0 0-.06-.01m18.188 4.594c1.167-.054 1.543.274 2.069 1.28.52.992.564 1.36.281 2.308-.185.62-.698 1.427-1.139 1.795-.747.622-2.044.825-3.322.523-.29-.068-.796-.773-1.125-1.566-.496-1.197-.54-1.655-.266-2.676.32-1.184.399-1.243 2.038-1.494a15 15 0 0 1 1.464-.17m41.497 1.133c-.274.009-4.498 5.219-4.489 5.547.005.186.2.257.434.16.234-.098 1.22-.299 2.19-.448l1.763-.27.094-2.45c.051-1.349.06-2.49.017-2.535l-.002-.002h-.002zm-42.54.607c-.12.01-.225.146-.4.4-.51.74-.492.941.135 1.534.694.656 1.03.604 1.26-.196.123-.431-.019-.89-.403-1.29-.3-.313-.456-.46-.592-.448m20.266 3.74c-.108.008-.177.069-.232.174-.324.618.36 1.954 1.79 3.494 1.125 1.211 1.083 1.58-.212 1.877a12 12 0 0 0-1.828.631l-.95.43 1.286.18c.707.098 2.407.167 3.779.154 2.09-.02 2.602-.13 3.162-.682l.67-.658-.947-.936c-.52-.513-1.082-.93-1.248-.925-.166.004-1.413-.91-2.77-2.034-1.526-1.262-2.177-1.728-2.5-1.705M60.42 56.205l-1.275.203c-.702.112-2.171.32-3.268.461-1.957.251-2.533.616-1.416.899.954.24 3.367-.228 4.695-.913zm-34.51.326c-.253.007-.683.374-.955.815-.485.788-2.752 1.74-3.336 1.402-.157-.091-.568.345-.914.97-.346.626-.851 1.144-1.121 1.151a.487.487 0 0 0-.477.494c.018.643 1.369.586 2.655-.113 2.35-1.277 5.407-4.754 4.148-4.719m23.254.485c-.27.002-.66.083-1.146.248-1.254.423-1.488.815-.586.982.777.144 1.59-.108 1.988-.615.316-.404.196-.619-.256-.615m48.324.72c-.116.004-.151 2.164-.078 4.801l.135 4.793 1.85-1.955 1.851-1.957-1-1.969c-.966-1.9-2.322-3.725-2.758-3.713m-52.687.848-1.115.22c-3.155.625-11.223 4.28-12.961 5.872l-.782.715 1.582-.676c4.316-1.846 11.493-5.095 12.33-5.582zm77.656.217.016.799c.031 1.755.531 4.147.867 4.148.195 0 .942.399 1.66.887s1.339.899 1.379.912q.014.005.023.002l.002-.002.01-.012c.114-.32-2.443-5.015-3.27-5.955zM86.543 69.248c-.763.02-1.295.136-1.422.356-.244.42.507.705 5.149 1.953 2.112.568 4.219 1.22 4.681 1.449 1.139.563 1.55.055.813-1.004l-.588-.846.84.137c.705.114.837.021.82-.584-.018-.654-.566-1.094-1.336-1.072-.162.004-.289.222-.281.486.018.653-.486.625-3.719-.215-1.771-.46-3.686-.693-4.957-.66m-3.768 4.006c-.08.004-.142.025-.177.062-.13.138.026.677.345 1.2.32.522.595 1.445.612 2.05.048 1.726-.98 1.978-4.43 1.088-1.52-.392-3.02-.805-3.334-.918-.696-.249-.548.17 1.371 3.858 1.205 2.315 1.298 2.414 1.363 1.459.04-.575-.175-1.378-.488-1.828-.529-.76-.527-.803.031-.819.324-.009 1.715.192 3.09.448 1.977.367 2.505.585 2.518 1.033.036 1.307.648.718 2-1.922 1.31-2.557 1.398-2.874.996-3.578-.437-.764-3.115-2.175-3.897-2.133m39.676 1.873-.361 2.89c-.383 3.05-.127 4.742 1.398 9.245.38 1.122.574 1.397.662.941.26-1.335-.437-8.404-1.054-10.693zm-15.404.11-.705 2.091c-.818 2.427-1.944 3.687-4.305 4.817-1.057.505-1.643.858-1.65.966l.002.014.006.006c.044.031.223.007.546-.086.306-.088 1.136-.039 1.844.107 1.978.409 4.324.315 4.498-.18.082-.232.063-2.068-.043-4.08zM77.404 93.763c-.305.021-1.122.707-2.525 2.013-2.722 2.535-4.032 3.405-5.483 3.641l-1.275.207 1.574.63c.866.348 1.865.799 2.223 1.003 1.567.894 1.908.543 4.482-4.596.994-1.983 1.373-2.924 1.004-2.898m11.86.283-.141 2.531c-.077 1.392-.457 4.025-.846 5.852s-.703 3.485-.697 3.685c.014.507.296.14 2.133-2.789.894-1.426 1.586-2.913 1.584-3.406-.002-.481-.46-2-1.018-3.375zm26.623.793c-.225.023-.339 1.277-.674 4.26-.386 3.434-.651 3.134 5.836 6.617 1.532.823 2.848 1.44 2.974 1.4h.004v-.002h.002v-.002c.378-.4-.555-1.586-2.6-3.302-2.48-2.084-3.198-3.168-4.656-7.024-.468-1.238-.711-1.965-.886-1.947m-38.735 16.764-3.006 6.486c-1.653 3.567-3.006 6.594-3.005 6.726s.078.24.171.237c.382-.01 3.197-1.664 3.805-2.235.881-.826 2.185-6.536 2.1-9.195zm45.907 5.312c-.15 0-.363.044-.664.113-.56.129-1.322.445-1.694.703-.869.605-1.676 2.441-1.64 3.73.024.862-.145 1.086-1.159 1.546-1.101.5-1.363.499-3.709-.028l-2.523-.566.238 1.1c.131.605.763 2.212 1.406 3.57 1.327 2.802 1.403 3.095.64 2.5-.203-.158-.326-.247-.372-.248h-.002l-.006.002h-.004v.002l-.002.002h-.002l-.002.002v.002l-.001.002c-.015.049.081.239.28.6l.43.777-.003.002.011.01-.006-.012.055-.024c.768-.32.552-1.95-.586-4.424-.557-1.212-1.016-2.301-1.02-2.422-.014-.528 1.553.183 2.756 1.25 1.777 1.576 2.617 1.95 3.383 1.512.693-.396.791-.682 1.213-3.553.428-2.912.925-3.806 2.278-4.1.979-.211 1.11-.356 1.085-1.204-.017-.628-.05-.843-.38-.844m-8.79 13.81-.933-.822c-1.986-1.746-6.406-3.26-7.838-2.683l-.744.3.932.586c.512.323 2.457 1.068 4.322 1.659 3.845 1.217 3.705 1.2 4.262.96m45.73-8.251-.072.084c-.253.295-.383.452-.375.513l.002.002v.006l.002.002.002.002v.002l.002.002.001.002c.04.03.186-.003.438-.076zm-73.137 1.07-.455.95c-.25.522-.87 2.043-1.38 3.378s-1.497 3.451-2.192 4.703c-1.727 3.11-4.829 9.018-4.824 9.188.007.25 1.735-.333 2.459-.83 1.295-.89 5.41-6.993 6.347-9.414.08-.204.273-.151.485.13.313.419.355.418.38-.01q.013-.194.042-.232l.004-.006.001-.002h.002l.002-.002h.012l.002.002h.002c.173.136.592 2.935.682 4.862l.119 2.556.433-1.613c.24-.887.408-2.836.375-4.332-.05-2.294-.248-3.235-1.277-6.023zm64.31 2.012c-.428-.002-1.35.327-2.35.85-1.076.56-2.171 1.027-2.434 1.034s-.795.37-1.18.803c-.668.752-.673.804-.105 1.117 1.191.657 4.122-.645 5.896-2.619.762-.847.804-.996.326-1.164a.5.5 0 0 0-.152-.021m8.827 3.517c-.356.523-.34.701-.014.895l.014.01zm-31.336 4.621c-.13.033-.851.694-1.713 1.577-2.095 2.145-3.833 3.047-6.017 3.117-.902.029-2.123.165-2.713.302-1.009.235-.88.309 2.154 1.21 1.775.527 3.386.956 3.58.958.4.003 2.615-1.644 3.152-2.343.319-.415 1.593-4.296 1.579-4.809v-.006l-.002-.002v-.002h-.002v-.002zm24.588 1.237c-.108.003-1.784.7-3.725 1.549-1.94.848-4.117 1.646-4.836 1.773s-1.633.449-2.033.715c-.663.44-.704.632-.465 2.195l.262 1.713-1.236-.111c-.681-.061-1.926-.333-2.766-.604-1.679-.542-2.025-.423-1.678.574.231.663 3.138 2.612 4.284 2.871.334.076 1.14.141 1.79.143 1.589.006 2.155-.872 2.089-3.238l-.051-1.795 1.65-.82c2.823-1.406 7.673-4.992 6.715-4.965m7.057 6.806c-.182.017-.52.19-1.004.44-1.41.73-5.996 4.496-6.944 5.701a43 43 0 0 0-1.164 1.576l-.613.875 3.328-1.219 3.33-1.218 1.522-2.684c1.519-2.681 1.974-3.51 1.545-3.47m-43.22 7.328-.972.028c-.64.018-1.859.646-3.564 1.838-4.073 2.845-5.662 3.26-10.246 2.68-3.556-.451-3.356.145.746 2.22 3.418 1.73 4.12 1.656 7.56-.799 1.522-1.086 3.601-2.873 4.621-3.97z" style="fill:#000"/><path d="M79.511 44.04c-.528 0-1.58 1.097-1.58 1.65 0 .123.227.453.504.73.614.614 2.247.663 2.473.074.26-.68-.748-2.453-1.397-2.453" style="fill:#000"/><path d="M143.897 151.336c-.071.012-.149.126-.25.316-.193.36-.66 1.86-1.035 3.332-.376 1.472-.965 3.23-1.31 3.904l-.626 1.229h2.047c2.004 0 2.05-.02 2.232-.932.226-1.13-.03-4.04-.564-6.427-.234-1.045-.35-1.447-.494-1.422m-16.422 1.158c-.135.025-.668.437-1.506 1.094-1.144.897-3.628 2.664-5.52 3.927s-3.44 2.365-3.441 2.45v.002l.002.002v.002l.002.002v.002c.08.078.948.135 1.996.129l2-.012 2.56-2.91c2.812-3.195 3.971-4.522 3.94-4.674v-.002l-.002-.006-.002-.002h-.002l-.006-.004z" style="fill:#363536;fill-opacity:1"/><path d="M112.434 56.447c-.064.013-.056.12.024.248.084.138.39 2.407.677 5.041s.664 5.423.836 6.196.332 1.889.354 2.48c.022.592.17 1.074.33 1.074.618 0 6.821-1.678 7.072-1.914.364-.34-.651-2.244-2.789-5.222-1.824-2.541-6.228-7.903-6.49-7.903z" style="fill:#91744c;fill-opacity:1"/><path d="m119.27 87.451 8.151 17.508-.113-11.164z" style="fill:#91744c;fill-opacity:1;fill-rule:evenodd;stroke:none;stroke-width:2.295;stroke-linecap:round;stroke-linejoin:round"/><path d="M94.958 115.568c.033-.074.668-1.327 1.412-2.785 2.244-4.4 4.358-9.835 4.67-12.009.126-.868.128-.87.44-.485.418.517 3.377 12.614 3.142 12.848-.054.054-.726-.217-1.493-.604-.767-.386-1.696-.75-2.065-.81-.723-.116-.605-.201-2.415 1.75-.758.82-3.919 2.612-3.69 2.095" style="fill:#514031;fill-opacity:1;fill-rule:evenodd;stroke:none;stroke-width:.405703;stroke-linecap:round;stroke-linejoin:round"/><path d="M87.356 107.085c.058-.76.124-.98.236-.799.096.154.349-.14 1.1-1.28.98-1.488 1.72-2.743 2.162-3.669.367-.769.4-.895.398-1.502-.004-.773-.178-1.357-1.119-3.754l-.623-1.587.105-.905c.104-.894.238-1.444.352-1.444.032 0 .108.08.169.177.13.209.285.232.285.042 0-.35 1.605.865 3.965 3.004 1.54 1.396 2.039 1.957 2.266 2.552.326.854.013 1.297-1.992 2.813-1.763 1.335-3.124 2.718-4.724 4.803-1.101 1.434-1.46 1.812-1.725 1.812-.132 0-.39.102-.575.227l-.336.228z" style="fill:#483728;fill-opacity:1;fill-rule:evenodd;stroke:none;stroke-width:.202851;stroke-linecap:round;stroke-linejoin:round"/></svg>