<svg xmlns="http://www.w3.org/2000/svg" xml:space="preserve" width="256" height="256"><path d="M1 128a127 127 0 0 0 127 127 127 127 0 0 0 127-127A127 127 0 0 0 128 1 127 127 0 0 0 1 128" style="fill:#6c7bea;fill-opacity:1;fill-rule:evenodd;stroke-width:2.20571"/><g style="fill:#000;fill-opacity:1"><path d="M102 49.4c.43 0 .75.08.8.22.05.18.65.27 1.32.2 2.9-.33 13.12 3.07 19.88 6.61l4.92 2.58-.37-2.58c-.2-1.41-.16-2.72.08-2.91.4-.32 1.76.13 1.86.61a19 19 0 0 0 2.2 2.12l2.15 1.9.32-1.27c.66-2.63 2.02-1.83 3.76 2.2.78 1.82.86 2.44.48 4.13l-.44 2 1.63 1.05c.89.58 6.15 3.5 11.68 6.5 5.54 3 11.76 6.73 13.82 8.29l4.2 3.14 1.61 1.15c1.87 1.34 2.98 4.34 3.8 10.3.54 3.9.6 6.09.23 8.77-.28 1.97-.64 3.64-.82 3.7s-.67-.06-1.1-.29c-1-.53-2.29-.07-3.56 1.28-.55.58-1.86 1.5-2.9 2.02l-1.91.94-.4-1.28c-.22-.7-.26-1.46-.1-1.67.43-.54-.08-2.05-.61-1.86-.24.08-.76.68-1.16 1.33-.55.88-1.33 1.4-3.03 2-2.05.72-2.32.71-2.55-.05a6 6 0 0 1-.06-2.25c.25-1.74-.37-1.87-1.95-.4-.6.54-1.97 1.3-3.05 1.69-1.94.68-1.98.67-2.37-.58-.22-.7-.32-1.72-.23-2.27.09-.54.08-1.02-.01-1.07-.13-.02-1.25.5-2.52 1.2-3.32 1.8-4.28 1.81-4.83.02-.25-.78-.3-1.6-.13-1.82.71-.91-.53-.96-2.92-.12-1.4.5-2.94.82-3.43.73-1.08-.2-1.59-1.6-1.05-2.89.55-1.35-.32-1.9-2.1-1.34-.83.26-1.41.57-1.3.69s.95 1 1.89 1.95c1.35 1.39 2.11 2.73 3.76 6.67l2.07 4.92 1.64.26c.9.14 2.2.2 2.9.14 1.48-.14 2.02.24 2.5 1.75.49 1.54-2.06 6.34-4.22 7.94-1.49 1.1-1.57 1.29-1.17 2.58a6 6 0 0 1 .3 2.26c-.08.48.06 1.2.31 1.62.36.59.7.63 1.55.17 1-.54 1.12-.49 1.5.74a6 6 0 0 1 .27 2.24c-.22 1.36.57 2.2 1.3 1.37.33-.36.98-.8 1.44-.96.77-.27.89-.12 1.3 1.74.25 1.12.42 2.4.37 2.85-.07.7.1.72 1.25.07 1.32-.73 1.33-.72 1.8.78.3.94.28 1.91-.04 2.6-.29.6-.42 1.63-.3 2.3.17.9-.01 1.32-.69 1.67-.5.25-1.86 1.1-3.04 1.9-2.91 1.96-4.05 2.02-5.52.28-1.46-1.71-13.22-7.7-13.11-6.67.04.4-.38.83-1.08 1.07-.9.32-1.32.18-2.04-.72l-.9-1.13-.9 1.56-.9 1.56-.59-.97c-.32-.54-.57-1.27-.55-1.63.02-.49-.58-.51-2.45-.1-3.05.7-5.86.32-6.22-.83-.14-.45-.07-.89.16-.97s.6-.52.81-.98c.5-1.06.36-1-3.3 1.42-3.18 2.1-4.53 3.6-6.14 6.83-1.18 2.36-1.66 4.36-1.3 5.48.4 1.33-.7 1.97-1.93 1.13-.84-.58-1.18-1.23-1.69-3.29-.35-1.41-.6-2.95-.55-3.4.14-1.35-.74-.71-1.63 1.16-.74 1.59-.84 1.65-1.57 1.14-.42-.3-.84-1-.92-1.55l-.15-1-1.13 1.4c-.62.78-1.95 2.38-2.95 3.57s-2.29 2.9-2.87 3.82l-1.07 1.66-.39-1.81c-.21-1-.51-1.77-.67-1.71-.5.18-3.5 5.92-3.35 6.42.26.82 6 1.38 10.37 1.01 4.52-.38 7.94-1.24 9.53-2.4.93-.68 1-.67.85.24-.09.54-.06 1.04.07 1.11s.26.76.29 1.54c.06 1.66.5 1.8 2.93.93 1.56-.55 1.56-.55 1.71.9.19 1.82-.08 3.73-.65 4.71-.68 1.16-.34 1.63 2.19 2.95 1.28.67 2.42 1.5 2.53 1.86.3.96-.77 7.66-1.2 7.55-.21-.06-.54-.61-.74-1.24s-.67-1.37-1.05-1.65c-1.54-1.1-8.2.43-8.26 1.9q-.09 1.48 4.47 2.4c1.42.3 3.59 1.1 4.81 1.78 2.1 1.17 2.28 1.38 2.98 3.65a21 21 0 0 1 .73 5.78c-.04 5.02-.65 6.16-1.96 3.6-1.12-2.17-4.56-5.77-5.87-6.14-.63-.18-2.2-.15-3.5.08-1.28.22-2.85.46-3.49.53-1 .12-1.11.26-.84 1.12a2.7 2.7 0 0 1 0 1.66c-.25.52-.15.6.45.42.68-.22.72-.17.29.43-.42.59-.35.9.51 2.22 1.47 2.25 2.68 4.87 2.3 5-.77.28-4.96-1.27-6.8-2.51-2.63-1.77-3.65-1.33-3.26 1.4.28 1.97.13 2.92-.35 2.26-.17-.23-2.33.4-5.62 1.62-9.81 3.67-14.18 4.12-18.7 1.93-1.63-.8-1.93-.8-2.05-.13-.16.9-2.93 2.04-6.39 2.65-2.49.43-8.21.51-9.13.13-.5-.2-.94-.03-1.68.65-.56.52-.97 1.08-.92 1.25.22.7-1.88 4.76-3.2 6.18-.77.82-2.22 1.91-3.24 2.42A127 127 0 0 1 1 128a127 127 0 0 1 4.34-32.91c1.37.13 3.14.56 4.2 1.04l2.22.99-.57-1.83c-.32-1-.43-2.28-.25-2.84a4 4 0 0 0 .1-1.92h.01c.21-.08 2 1.6 4.24 4q4.49 4.79 4.61 4.1a2.5 2.5 0 0 1 .74-1.17c.34-.28.52-.8.4-1.15-.55-1.79 1-.4 3.32 2.97.14.2 1.69 1.32 3.44 2.48 3.16 2.09 3.2 2.1 2.93.82-.52-2.48-.48-4.69.07-4.88.33-.12.97.47 1.54 1.42 1.8 2.97 2.51 3.84 3.91 4.74l1.39.9-.58-1.3c-.55-1.2-.51-1.28.5-1.38a11 11 0 0 1 2.32.1c1.72.26 1.73.25 1.09-1.81-.32-1.02-.46-2-.3-2.2.15-.2 1.32-.5 2.61-.7 3.45-.5 4.81-1.8 2.37-2.25-1.94-.36-1.85-1.49.2-2.52 3.48-1.75 7.54-6.73 6.97-8.56-.58-1.87-.38-5.5.39-7.04.88-1.79.64-2.34-.79-1.83-.55.2-1.03.1-1.13-.24-.28-.88 4.86-7.64 7.3-9.6 1.15-.94 1.95-1.78 1.82-1.93h-.01c-.2-.11-.51-.53-.7-.93-.51-1.06 2.76-3.91 6.36-5.55a17 17 0 0 0 2.21-1.12v-.01l-.08.01c-.4.1-1.5-.05-2.44-.33l-1.7-.51 1.37-.98c2.55-1.83 7.05-2.94 10.4-2.58 4.65.5 6.27.54 10.06.2 4.34-.37 10.43-.36 12.83.05 1.21.2 1.33.16 1.15-.4-.1-.36-.37-.58-.58-.5-.22.07-.5-.17-.6-.54-.16-.5.02-.68.76-.69.53 0 1.48-.09 2.1-.18zm14.43 41.74q-.09 0-.12.04v.01q-.01.09.42.37c.79.53 1.04.52.87-.01-.06-.2-.44-.4-.84-.41zm6.7 2.27c-.8-.04-1.63.43-1.45 1.03.11.34.26.5.33.36s.4-.07.74.18c.46.33.76.27 1.19-.24.45-.53.43-.77-.08-1.1q-.33-.22-.74-.23m5.13 3.72q-.41 0-.94.17c-.88.31-.88.35.09 1.36 1.17 1.21 1.13 1.22 1.65-.04.37-.9 0-1.47-.8-1.5" style="fill:#000;fill-opacity:1;stroke-width:.318676"/><path d="m180.805 119.348-2.485.113-2.299.574-2.195 1.016-1.93 1.39-1.634 1.754-1.278 2.045-.502 1.156-.459 1.54-.312 2.162.117 2.457.574 2.336 1.01 2.158 1.412 1.94 1.737 1.624 2.087 1.293 1.131.489 1.526.457 1.574.27 1.23.064 2.44-.235.04-.011 2.223 3.908 5.221 1.523 7.14 2.084 30.636 8.94 1.73-4.178c1.367.398 2.832 1.007 4.04 1.941 1.635 1.266 2.828 3.004 2.923 5.858s-1.01 6.903-4.379 12.44c-6.709 11.022-17.94 18.843-25.95 26.519-4.003 3.838-7.24 7.663-8.558 12.027s-.533 9.182 3.133 14.412c.349.553.836 1.294 1.198 1.838l1.99-1.453-1.153-1.81c-3.364-4.8-3.89-8.617-2.787-12.27 1.103-3.654 4.013-7.226 7.899-10.95 7.77-7.447 19.277-15.398 26.351-27.02 3.522-5.787 4.858-10.258 4.74-13.815s-1.793-6.122-3.886-7.743c-1.445-1.118-3.075-1.844-4.59-2.318l3.265-7.88-39.308-21.44-3.387 1.357-.213-.455-1.385-1.912-1.757-1.639-2.082-1.29-1.135-.49-1.543-.464zm16.369 32.107-7.14-2.084L155.67 251.87l.17.05c2.82-.637 5.62-1.37 8.39-2.198z" style="baseline-shift:baseline;display:inline;overflow:visible;opacity:1;vector-effect:none;fill:#000;fill-opacity:1;stroke-linecap:round;stop-color:#000;stop-opacity:1"/></g></svg>